<svg id="Layer_1" data-name="Layer 1" xmlns="http://www.w3.org/2000/svg" width="372mm" height="240mm" viewBox="0 0 1054.5 680.3"><defs><style>.cls-1{fill:#fff;}.cls-2{isolation:isolate;}.cls-3{fill:#ff0;}</style></defs><title>logoWtext</title><path class="cls-1" d="M405,396.7c-10.2-10.3-25.4-14.8-33.8-28.4,1.8-3,3.4-6.3,5.5-9.3,6.1-9.1,12.3-18.2,18.7-27.1,4.9-6.7,8-6.9,14.3-1.4,21.2,18.5,45.7,31.7,71.1,43.2,27.7,12.5,55.5,24.6,83.7,35.7,30.1,11.9,60.7,22.4,91.2,33.5a42.3,42.3,0,0,0,5.1,1.3c2.8-4-.5-5.8-2.5-7.7-13.3-12.3-27-24.1-39.8-36.8-23.2-23.1-46.2-46.3-68.5-70.1s-42.9-47.1-63.8-71.1c-12.6-14.5-24.2-29.9-36.4-44.8-2.6-3.1-4.6-7.6-10.6-6.6l-5.8,7.3c1.4,2.3,2.5,4.7,4.2,6.7,11,13.1,21.9,26.2,33.1,39.2q14.6,16.6,29.4,32.8c6.1,6.7,6.5,8.5,1,15.7-6.6,8.8-13,17.8-20,26.3s-7.8,6.4-14.9.6-11.4-12.2-16.2-19.3c-8.8-12.9-19.3-24.6-29.1-36.7-5.2-6.4-10.6-12.6-15.8-19.1s-7.7-7.2-14.8-3.6l-18.1,9a46.5,46.5,0,0,0,2.5,6.6c6.1,10.6,12.4,21,18.4,31.7,4.9,8.5,4.2,10.3-2.2,17.8s-12.3,15.9-18.8,23.6c-3.1,3.6-5.1,8.6-12,9.5l-28.5-48.1c-24.3,22.5-53.9,29.5-84.3,37,.2,3.1.5,6.3.7,10.1-9.1,10.9-18.1,22.5-28,33.3-7,7.8-9.9,7.1-15.3-1.6s-10.6-17.2-15.6-26c-3.5-6.2-7.8-8.6-15.5-8.3-36,1.2-71.8-1.1-106.4-12.4A60.6,60.6,0,0,1,39,319.6c-4.8-5.6-5.1-11.7-2.8-18a38.1,38.1,0,0,1,6.5-11c7.5-8.9,15.4-17.4,23.3-25.9,1.6-1.6,4.1-2.2,7.6-4.1.3,4.6.6,7.3.7,9.9,0,8.2,3.7,14,10.6,18.1,15.5,9.3,32.7,13.4,50.2,16.3,4.6.8,9.3,1.2,16.2,2.1-2.3-4.8-3.2-7.6-4.8-9.9-15.8-22.5-31.8-44.9-47.6-67.4-6.2-8.9-6.7-9-17.4-7.1-7.9,1.4-15.8,2.6-23.7,3.2-3,.2-7.5-.9-8.8-3s.7-6.2,2.3-8.8a219.7,219.7,0,0,1,13.5-19.6c2.7-3.6,2.4-6.2-.4-9.7A427.2,427.2,0,0,0,7.8,127.2c-6.7-5.6-6.9-8.3-1.6-15.5L42.7,62.2c6.2-8.4,8.6-9.4,18.4-4.6,37.6,18.3,77.8,29.8,116.6,45,16.2,6.3,32.3,13.1,48.1,20.5,7.4,3.5,13.8,8.9,21.7,14.1,4.5-7.1,14.3-10.8,11.7-22.7s5.5-20.7,12.2-29.5c2.7-3.5,6.8-6.3,6.2-12.9C241.1,67,205.7,57.4,169.2,47.8c.7-3.7.5-6.6,1.7-8.7,6.3-10.9,12.8-21.7,19.6-32.2,4.8-7.6,7.7-8.4,16.2-5,34.4,13.6,70.5,20.2,106.9,25.4,28.5,4,57.1,8.2,85.8,10.4s55.8,2.5,83.7,2.7c25.1.1,50.3-.4,75.2-4.7a35.4,35.4,0,0,1,4.6-.2c7.4,0,8.7,1.9,5.7,8.8a46.4,46.4,0,0,1-4.9,8.7c-4.5,5.7-10.1,10.5-13.8,16.6s-9.7,7.9-16.1,8.5l-40.3,3.6c-10.7.8-21.4,1.5-32.1,1.8s-22.7-.1-34,.2c-2.8.1-5.5,1.6-8.3,2.5.9,2.4,1.2,5.2,2.6,7.2,14.7,20.3,29.6,40.5,44.4,60.7,1.6,2.2,3,4.6,5.5,6.2,4.5-10-7.6-16.5-2.3-25-9.7-5.3-10.3-6.7-6.2-15.3,3.3-6.9,6.7-13.7,10.4-20.4,6-10.6,13.9-13.6,27-12,31.9,4,63.8,7.6,95.7,11.4a22.2,22.2,0,0,1,4.5.7c5.7,2,9.8-.5,12.5-5.1,11.6-19.5,30.3-28.9,50.6-35.6,32.9-10.8,66-20.8,98.9-31.6,12.5-4.1,24.6-9.4,36.7-14.4,5.8-2.3,8.2-2.3,10.3,3.3,7.1,18.7,20.5,33.3,32,49s25.2,33.9,37.2,51.3c9.2,13.3,17.3,27.4,26.3,40.9,3,4.6,3.1,8.3-.6,12.4-5.9,6.6-11.6,13.4-17.3,20.2-1.4,1.6-2.7,3.3-4.5,5.6,3,2.1,5.5,4.2,8.4,5.7,40.8,22.3,77.8,49.8,111.6,81.5,16.4,15.3,31.2,32,41.4,52.3,6.6,13.3,10.4,27.1,5.7,41.7a51.4,51.4,0,0,1-7.6,15.6c-11,14.3-22,28.6-37.5,38.8-11.1,7.3-23.4,10.5-36.4,11-31.2,1.4-61.5-3.7-91.8-10.8-54-12.6-101.3-37.8-144.3-71.9-22.6-18-43.2-38-59.4-62.2-6.7-9.8-11.4-20.2-12.9-32-.3-2.8-1.3-5.6-2.2-9C645.3,263.7,634,271,622,277s-23.8,9.9-37.1,15.4c3.8,4.1,6.6,7.5,9.8,10.5,15.2,14.2,30.3,28.5,45.7,42.4,3,2.7,7.2,4.1,10.8,6.2s8,3.6,10.8,6.6c13.1,14.1,25.8,28.7,38.7,43,3.6,3.9,3.2,7.9.2,11.6-7.4,9.3-15.1,18.4-22.5,27.6-1.8,2.3-3.2,4.9-5.3,8.2,14.2,4.6,27.3,8.7,40.1,13.2a102.2,102.2,0,0,1,15.8,7.2c3.7,2,5.2,5.6,2.5,9.3-8.5,11.3-17.1,22.4-25.8,33.4-2.7,3.4-6.2,3.8-10.7,3.1-23.6-3.6-47.3-7.2-71-9.8s-49.5-4.7-74.3-5.5a537.8,537.8,0,0,0-108.2,7.5c-20.4,3.5-41.2,7.4-60.6,14.5-12.9,4.7-25.7,4.1-38.5,6-3.6.6-6.8,0-8.1-4.4,3.9-5.6,8.4-11,11.8-17.1,4.7-8.5,11.8-13.9,19.9-18.4,15.8-8.6,32.9-13.1,50.2-17,2-.4,3.9-1.2,7.6-2.4-3.4-2.8-5.3-5.3-7.8-6.3-20.4-8.4-40.3-18.4-62.2-21.8s-46.1-7.5-69.3-8.1c-28.4-.8-56.8,2.9-84.1,12.4a13.7,13.7,0,0,1-3.5.8,29.2,29.2,0,0,1-4.9-.5c.3-3.2-.3-6.9,1.2-9.3,7.5-12.2,15.3-24.2,23.5-35.9a14.1,14.1,0,0,1,8-5.5c32.1-6.7,64.4-13.2,97.4-10.1,18.3,1.8,36.4,4.9,54.5,7.9,6.3,1.1,12.2,4,18.3,5.7,3,.9,6.3,1.1,9.4,1.6A20.2,20.2,0,0,1,405,396.7ZM544.5,205.3c8.6,16.4,18.7,28.8,34.7,35.6s30.9,4.6,45.4-2.5c17.6-8.6,34.6-18.4,52-27.4a39.8,39.8,0,0,0,14.3-12.4,29.7,29.7,0,0,1,10.6-8.3c5.1-2.5,9.3.4,9.3,6.2a17.7,17.7,0,0,1-2,8.7c-2.7,4.8-5.5,9.7-9.2,13.6-5.5,5.6-6,11.8-3.9,18.6a119,119,0,0,0,23.5,43.2c16.9,20.1,37.8,35.7,59.2,50.6,14.5,10.1,30.1,18.8,45.7,27.3,13.1,7.1,26.6,13.9,40.5,19.2s30.4,9.6,45.6,14.1c27.3,8.1,55.4,10.5,83.7,9.2,6.8-.3,14-.8,20.1-5.4-1.3-18.9-9.6-34.3-21.7-47.8-19.5-21.8-42-40.3-65.5-57.4-60.3-43.8-126-77.8-195.8-103.7-22.5-8.5-45.5-16-67.7-23.7-9.2,10.6-18.3,20.4-26.3,30.9a17.3,17.3,0,0,1-12.2,6.9c-23.5,3.3-47,4.9-70.7,2.9C551.4,203.5,548.6,204.6,544.5,205.3ZM859,184.7l2.1-1.6c-.9-2-1.4-4.3-2.7-6.1-15.7-21.8-31.2-43.8-47.4-65.2-11.7-15.4-22.9-30.9-30.6-48.7-3.6-8.2-5.1-8.4-13.3-5.3-16.7,6.2-33.2,12.6-50.2,17.9-23,7.1-46.3,13.1-68.8,19.4-1.7,4.7-.5,6.6,3.1,8,6.5,2.5,12.8,5.8,19.3,8.2,24.8,9,49.7,17.4,74.3,26.6,28.6,10.7,57.2,21.7,85.6,33C840.2,174.8,849.5,180.1,859,184.7ZM169.9,226.2l-2.4,2.2c1.5,3,2.7,6.2,4.6,8.9,5.1,7.3,10.8,14.1,15.8,21.4,10.2,14.6,20.2,29.2,29.9,44.1,3.2,4.8,6.8,6.3,12.3,5.4,11.5-1.8,23.2-2.7,34.6-4.9,16.8-3.3,33.3-7.6,50-11.3,4.9-1.1,5.8-4.3,4.6-8.3s-3.6-7-8.5-7a94.5,94.5,0,0,1-11.9-.2c-7.1-.7-8.4-2.8-6.2-9.5.5-1.7.8-3.4,1.3-5.9C253.5,245.2,212,234.6,169.9,226.2ZM308.8,78.1c1.9,3.1,2.2,4,2.8,4.6,28.9,29.1,58,58,84.2,89.6,1.2,1.5,3.3,2.1,5.7,3.6.2-2.5,1-4.2.4-5.4-6-13.6-11.3-27.7-18.7-40.5-9.5-16.3-20.7-31.5-32-48.5C338.8,79.7,324.8,77.3,308.8,78.1Zm206.4,60.4c2.1,5.7,3.3,9.9,5.2,13.9s6.3,7,12,6.3a143.4,143.4,0,0,1,17.3-1c26.7.4,53.3,1.1,80,1.4,4.5.1,9.7,1.6,14.2-3.3a47.8,47.8,0,0,0-4.2-2.3c-6.5-2.5-13.3-4.5-19.4-7.6s-12.1-3.6-18.6-3.6c-25.7.3-51.5.8-77-3.7C522.5,138.2,520,138.5,515.2,138.5ZM187.3,164.8l-.4-3.2c-14.7-5.5-29.5-10.8-44.2-16.5S113.9,133.6,96.9,129c1.7,4.2,2.1,6.3,3.2,7.9,8,11.1,16.3,22,24.2,33.2,2.7,3.9,6.2,4.6,10.3,4.1,15.5-1.9,30.9-3.8,46.2-6.1C183.1,167.8,185.2,166,187.3,164.8ZM441,463l84.4-9.7,1.9-2.8-4.4-1.5L465,427.8C457.2,434.1,442.1,455.8,441,463ZM312.9,161.8A219.1,219.1,0,0,0,348.6,229c9.1.7,17.1.3,25-5.7C353.8,202,335.1,180.4,312.9,161.8Zm-86.4,27.7,26.4,7.5c-1-3.9-1.1-6-2.1-7.5a53,53,0,0,0-5.7-5.9C234.8,172.9,233.5,173.1,226.5,189.5Z"/><path class="cls-1" d="M747,527.9a32.5,32.5,0,0,1-5.4-.1c-4.2-.6-5.9-4-3.4-7.1,5.8-7.3,12-14.4,17.9-21.7,2.7-3.4,6-3.8,9.7-2.4,1.7.7,3.3,1.7,5,2.3,9.6,3.6,10.3,5.9,3.5,13.8C762.5,526.3,758.1,528.1,747,527.9Z"/><g id="Graffiti_Artwork_" data-name="Graffiti Artwork " class="cls-2"><g class="cls-2"><path class="cls-3" d="M287.2,647.3c0-11.3,7.9-19,18.2-19s15.6,4.9,15.6,13.2v2.1h-4.3a12.8,12.8,0,0,0,.1-1.9c0-5.8-4.9-9.2-11.4-9.2s-13.6,5.9-13.6,14.9,6,14.3,13.3,14.3,11.7-4.1,11.7-9.5v-1.1H304.1v-3.4h17.3v17.4H317c.2-1.5.4-4.1.5-6.7h-.1c-1.1,4.1-5.1,7.2-12.3,7.2C294.8,665.6,287.2,658.5,287.2,647.3Z"/><path class="cls-3" d="M329.1,637.9h4.4v7.9h0c1.3-4.8,4.1-8.3,9.9-8.3s9.4,4,9.4,10.6c0,1.9-.2,3.8-.3,4.8h-4a33.8,33.8,0,0,0,.2-3.9c0-5-1.9-7.6-6.3-7.6s-8.8,4.9-8.8,11.6v12.1h-4.4Z"/><path class="cls-3" d="M358.2,657.3c0-3.9,2.7-7.2,9.9-7.2h11.1v-2c0-4.6-2.8-6.9-8.3-6.9s-7.8,1.9-7.8,5.6a5.1,5.1,0,0,0,.1,1h-4.1c0-.4-.1-1.2-.1-1.7,0-5.4,4.6-8.6,12-8.6s12.6,3.9,12.6,11v16.6h-4.4c0-1.3.1-3.8.2-6.5h-.1c-.9,4.2-4.3,6.9-11.1,6.9S358.2,662.4,358.2,657.3Zm21-3.6v-.4H368.5c-4.4,0-6.2,1.3-6.2,4s2.5,4.5,6.8,4.5C375.3,661.8,379.2,658.6,379.2,653.7Z"/><path class="cls-3" d="M392.4,641.8h-4.5v-3.9h4.5v-2.7c0-5.9,3.7-9.3,9.3-9.3a16.9,16.9,0,0,1,4.8.7v3.9a13.4,13.4,0,0,0-4.2-.7c-3.5,0-5.5,2-5.5,5.4v2.7h15.5v-2.7c0-5.9,3.7-9.3,9.3-9.3a16.9,16.9,0,0,1,4.8.7v3.9a13.4,13.4,0,0,0-4.2-.7c-3.5,0-5.5,2-5.5,5.4v2.7h10.2v3.9H416.7v23.3h-4.4V641.8H396.8v23.3h-4.4Z"/><path class="cls-3" d="M432.6,628.9h4.7v5.5h-4.7Zm.2,9h4.4v27.2h-4.4Z"/><path class="cls-3" d="M446.5,655.1V641.8H442v-3.9h3.6c.9,0,1.2-.4,1.3-1.9l.3-4.2h3.7v6.1h9.8v3.9h-9.8v13.1c0,4.1,1.3,6.5,5.4,6.5a16.1,16.1,0,0,0,4.2-.5v3.7a11.5,11.5,0,0,1-4.6.7C449.3,665.3,446.5,661.1,446.5,655.1Z"/><path class="cls-3" d="M466.9,628.9h4.7v5.5h-4.7Zm.1,9h4.4v27.2H467Z"/><path class="cls-3" d="M525.3,661.4v4H524a16,16,0,0,1-9.8-3.7,15.7,15.7,0,0,1-10.6,3.8c-7.7,0-12.5-4.6-12.5-11.2s3.6-9.7,9.4-10.8a17.8,17.8,0,0,1-1.6-6.6c0-5.4,3.5-8.7,8.9-8.7s8.6,3.3,8.6,8.1-4,8.8-10.1,9.6a54.7,54.7,0,0,0,8,10.2,34.4,34.4,0,0,0,5.1-11.5h4.1a38.2,38.2,0,0,1-6.3,13.9c2.6,1.9,5,2.9,7.3,2.9Zm-21.4.3a12.6,12.6,0,0,0,7.4-2.4,58,58,0,0,1-9.2-12.3h-.2a7.2,7.2,0,0,0-6.4,7.4C495.5,658.6,498.8,661.7,503.9,661.7Zm-.7-24.7a15.4,15.4,0,0,0,1.4,5.9c5.1-.8,7.7-3.3,7.7-6.4s-1.7-4.2-4.5-4.2A4.4,4.4,0,0,0,503.2,637Z"/><path class="cls-3" d="M568,656.3H549.3l-3.6,8.8h-4.8l15.3-36.2h5.5L577,665.1h-5.4Zm-1.3-3.4-7.9-19.8h-.1l-8,19.8Z"/><path class="cls-3" d="M582.2,637.9h4.4v7.9h0c1.3-4.8,4.1-8.3,9.9-8.3s9.4,4,9.4,10.6c0,1.9-.2,3.8-.3,4.8h-4a33.8,33.8,0,0,0,.2-3.9c0-5-1.9-7.6-6.3-7.6s-8.8,4.9-8.8,11.6v12.1h-4.4Z"/><path class="cls-3" d="M613.8,655.1V641.8h-4.6v-3.9h3.7c.9,0,1.2-.4,1.3-1.9l.2-4.2h3.8v6.1H628v3.9h-9.8v13.1c0,4.1,1.3,6.5,5.3,6.5a17.1,17.1,0,0,0,4.3-.5v3.7a11.5,11.5,0,0,1-4.6.7C616.6,665.3,613.8,661.1,613.8,655.1Z"/><path class="cls-3" d="M631.5,637.9h4.8l6.2,22.6h.1l7.6-22.6h4.4l7.3,22.6h.1l6.5-22.6h4.2l-8.1,27.2h-5.4l-7-21.7H652l-7.2,21.7h-5.2Z"/><path class="cls-3" d="M675.8,651.6c0-8.6,5.3-14.1,13.7-14.1s13.8,5.5,13.8,14.1-5.3,13.9-13.8,13.9S675.8,660.1,675.8,651.6Zm23.1,0c0-6.2-3.6-10.2-9.4-10.2s-9.3,4-9.3,10.2,3.6,10,9.3,10S698.9,657.7,698.9,651.6Z"/><path class="cls-3" d="M709.9,637.9h4.4v7.9h0c1.3-4.8,4.1-8.3,9.9-8.3s9.4,4,9.4,10.6c0,1.9-.2,3.8-.3,4.8h-4a33.8,33.8,0,0,0,.2-3.9c0-5-1.9-7.6-6.3-7.6s-8.8,4.9-8.8,11.6v12.1h-4.4Z"/><path class="cls-3" d="M740.4,627h4.4v26.1h0l17.1-15.2H768l-13.7,11.8,14.5,15.4h-6.3L751,652.5l-6.2,5.4v7.2h-4.4Z"/></g></g></svg>
