<svg id="Layer_1" data-name="Layer 1" xmlns="http://www.w3.org/2000/svg" width="1049.5" height="687.6" viewBox="0 0 1049.5 687.6"><defs><style>.cls-1{fill:#fff;}.cls-2{isolation:isolate;}.cls-3{fill:#ff0;}</style></defs><title>logo_w_text_bigger</title><path class="cls-1" d="M402.5,396.7c-10.2-10.3-25.4-14.8-33.8-28.4,1.8-3,3.4-6.3,5.5-9.3,6.1-9.1,12.3-18.2,18.7-27.1,4.9-6.7,8-6.9,14.3-1.4,21.2,18.5,45.7,31.7,71.1,43.2,27.7,12.5,55.5,24.6,83.7,35.7,30.1,11.9,60.7,22.4,91.2,33.5a42.3,42.3,0,0,0,5.1,1.3c2.8-4-.5-5.8-2.5-7.7-13.3-12.3-27-24.1-39.8-36.8-23.2-23.1-46.2-46.3-68.5-70.1s-42.9-47.1-63.8-71.1c-12.6-14.5-24.2-29.9-36.4-44.8-2.6-3.1-4.6-7.6-10.6-6.6l-5.8,7.3c1.4,2.3,2.5,4.7,4.2,6.7,11,13.1,21.9,26.2,33.1,39.2q14.6,16.6,29.4,32.8c6.2,6.7,6.5,8.5,1,15.7-6.6,8.8-13,17.8-20,26.3s-7.8,6.4-14.9.6-11.4-12.2-16.2-19.3c-8.8-12.9-19.3-24.6-29.1-36.7-5.2-6.4-10.6-12.6-15.8-19.1s-7.7-7.2-14.8-3.6l-18.1,9a46.5,46.5,0,0,0,2.5,6.6c6.1,10.6,12.4,21,18.4,31.7,4.9,8.5,4.2,10.3-2.2,17.8s-12.3,15.9-18.8,23.6c-3.1,3.6-5.1,8.6-12,9.5l-28.5-48.1c-24.3,22.5-53.9,29.5-84.3,37,.2,3.1.5,6.3.7,10.1-9.1,10.9-18.1,22.5-27.9,33.3-7.1,7.8-10,7.1-15.4-1.6s-10.6-17.2-15.6-26c-3.5-6.2-7.8-8.6-15.5-8.3-36,1.2-71.8-1.1-106.4-12.4a60.6,60.6,0,0,1-28.2-19.6c-4.8-5.6-5.1-11.7-2.8-18a38.1,38.1,0,0,1,6.5-11c7.5-8.9,15.4-17.4,23.4-25.9,1.5-1.6,4-2.2,7.5-4.1.3,4.6.6,7.3.7,9.9,0,8.2,3.7,14,10.6,18.1,15.5,9.3,32.7,13.4,50.2,16.3,4.6.8,9.3,1.2,16.2,2.1-2.3-4.8-3.2-7.6-4.8-9.9-15.8-22.5-31.8-44.9-47.6-67.4-6.2-8.9-6.7-9-17.4-7.1-7.9,1.4-15.8,2.6-23.7,3.2-3,.2-7.5-.9-8.8-3s.7-6.2,2.3-8.8a219.7,219.7,0,0,1,13.5-19.6c2.7-3.6,2.4-6.2-.4-9.7A427.2,427.2,0,0,0,5.3,127.2c-6.7-5.6-6.9-8.3-1.6-15.5L40.2,62.2c6.2-8.4,8.6-9.4,18.5-4.6,37.5,18.3,77.7,29.8,116.5,45,16.2,6.3,32.3,13.1,48.1,20.5,7.4,3.5,13.8,8.9,21.7,14.1,4.5-7.1,14.3-10.8,11.7-22.7s5.5-20.7,12.2-29.5c2.7-3.5,6.8-6.3,6.2-12.9C238.6,67,203.2,57.4,166.7,47.8c.7-3.7.5-6.6,1.7-8.7,6.3-10.9,12.8-21.7,19.6-32.2,4.8-7.6,7.7-8.4,16.2-5,34.4,13.6,70.5,20.2,106.9,25.4,28.5,4,57.1,8.2,85.8,10.4s55.8,2.5,83.7,2.7c25.1.1,50.3-.4,75.2-4.7a35.4,35.4,0,0,1,4.6-.2c7.4,0,8.7,1.9,5.7,8.8a46.4,46.4,0,0,1-4.9,8.7c-4.5,5.7-10.1,10.5-13.8,16.6s-9.6,7.9-16.1,8.5L491,81.7c-10.7.8-21.4,1.5-32.1,1.8s-22.7-.1-34,.2c-2.8.1-5.5,1.6-8.3,2.5.9,2.4,1.2,5.2,2.6,7.2,14.7,20.3,29.6,40.5,44.4,60.7,1.6,2.2,3,4.6,5.5,6.2,4.5-10-7.6-16.5-2.3-25-9.7-5.3-10.3-6.7-6.2-15.3,3.3-6.9,6.7-13.7,10.4-20.4,6-10.6,13.9-13.6,27-12,31.9,4,63.8,7.6,95.7,11.4a22.2,22.2,0,0,1,4.5.7c5.7,2,9.8-.5,12.5-5.1C622.3,75.1,641,65.7,661.3,59c32.9-10.8,66-20.8,98.9-31.6,12.5-4.1,24.6-9.4,36.7-14.4,5.8-2.3,8.2-2.3,10.3,3.3,7.1,18.7,20.5,33.3,32,49s25.2,33.9,37.2,51.3c9.2,13.3,17.3,27.4,26.3,40.9,3,4.6,3.1,8.3-.6,12.4-5.9,6.6-11.6,13.4-17.3,20.2-1.4,1.6-2.7,3.3-4.5,5.6a89.4,89.4,0,0,0,8.4,5.7c40.8,22.3,77.8,49.8,111.6,81.5,16.4,15.3,31.2,32,41.4,52.3,6.6,13.3,10.4,27.1,5.7,41.7a51.4,51.4,0,0,1-7.6,15.6c-11,14.3-22,28.6-37.5,38.8-11.1,7.3-23.4,10.5-36.4,11-31.2,1.4-61.5-3.7-91.8-10.8-54-12.6-101.3-37.8-144.3-71.9-22.6-18-43.2-38-59.4-62.2-6.6-9.8-11.4-20.2-12.9-32-.3-2.8-1.3-5.6-2.2-9-12.5,7.3-23.8,14.6-35.8,20.6s-23.8,9.9-37.1,15.4c3.8,4.1,6.6,7.5,9.9,10.5,15.1,14.2,30.2,28.5,45.6,42.4,3,2.7,7.2,4.1,10.8,6.2s8,3.6,10.8,6.6c13.1,14.1,25.8,28.7,38.7,43,3.6,3.9,3.2,7.9.3,11.6-7.5,9.3-15.2,18.4-22.6,27.6-1.8,2.3-3.2,4.9-5.3,8.2,14.2,4.6,27.3,8.7,40.1,13.2a102.2,102.2,0,0,1,15.8,7.2c3.7,2,5.2,5.6,2.5,9.3-8.5,11.3-17.1,22.4-25.8,33.4-2.7,3.4-6.2,3.8-10.7,3.1-23.6-3.6-47.3-7.2-71-9.8s-49.5-4.7-74.3-5.5A537.8,537.8,0,0,0,439,506.9c-20.4,3.5-41.2,7.4-60.6,14.5-12.9,4.7-25.7,4.1-38.5,6-3.6.6-6.8,0-8.1-4.4,3.9-5.6,8.4-11,11.8-17.1,4.7-8.5,11.8-13.9,20-18.4,15.7-8.6,32.8-13.1,50.1-17,2-.4,3.9-1.2,7.6-2.4-3.4-2.8-5.3-5.3-7.8-6.3-20.4-8.4-40.3-18.4-62.2-21.8s-46.1-7.5-69.3-8.1c-28.4-.8-56.8,2.9-84.1,12.4a13.7,13.7,0,0,1-3.5.8,29.2,29.2,0,0,1-4.9-.5c.3-3.2-.3-6.9,1.2-9.3,7.5-12.2,15.3-24.2,23.5-35.9a14.4,14.4,0,0,1,8-5.5c32.1-6.7,64.4-13.2,97.5-10.1,18.2,1.8,36.3,4.9,54.4,7.9,6.3,1.1,12.2,4,18.3,5.7,3,.9,6.3,1.1,9.4,1.6C402,398.2,402.3,397.5,402.5,396.7ZM542,205.3c8.7,16.4,18.7,28.8,34.7,35.6s30.9,4.6,45.4-2.5c17.6-8.6,34.6-18.4,52-27.4a39.8,39.8,0,0,0,14.3-12.4,29.7,29.7,0,0,1,10.6-8.3c5.1-2.5,9.3.4,9.3,6.2a17.7,17.7,0,0,1-2,8.7c-2.7,4.8-5.5,9.7-9.2,13.6-5.5,5.6-6,11.8-3.9,18.6a119,119,0,0,0,23.5,43.2c17,20.1,37.8,35.7,59.2,50.6,14.5,10.1,30.1,18.8,45.7,27.3,13.1,7.1,26.6,13.9,40.5,19.2s30.4,9.6,45.6,14.1c27.3,8.1,55.4,10.5,83.7,9.2,6.8-.3,14-.8,20.1-5.4-1.3-18.9-9.6-34.3-21.7-47.8-19.5-21.8-42-40.3-65.5-57.4-60.3-43.8-126-77.8-195.8-103.7-22.5-8.5-45.5-16-67.7-23.7-9.2,10.6-18.3,20.4-26.3,30.9a17.3,17.3,0,0,1-12.2,6.9c-23.5,3.3-47,4.9-70.7,2.9C548.9,203.5,546.1,204.6,542,205.3Zm314.5-20.6,2.1-1.6c-.9-2-1.4-4.3-2.7-6.1-15.7-21.8-31.2-43.8-47.4-65.2-11.7-15.4-22.9-30.9-30.6-48.7-3.6-8.2-5.1-8.4-13.3-5.3-16.7,6.2-33.2,12.6-50.2,17.9-22.9,7.1-46.3,13.1-68.8,19.4-1.7,4.7-.5,6.6,3.1,8,6.6,2.5,12.8,5.8,19.4,8.2,24.7,9,49.6,17.4,74.2,26.6,28.6,10.7,57.2,21.7,85.6,33C837.7,174.8,847,180.1,856.5,184.7ZM167.4,226.2l-2.4,2.2c1.5,3,2.7,6.2,4.6,8.9,5.1,7.3,10.8,14.1,15.8,21.4,10.2,14.6,20.2,29.2,29.9,44.1,3.2,4.8,6.8,6.3,12.3,5.4,11.5-1.8,23.2-2.7,34.6-4.9,16.8-3.3,33.4-7.6,50-11.3,4.9-1.1,5.8-4.3,4.6-8.3s-3.6-7-8.5-7a94.5,94.5,0,0,1-11.9-.2c-7.1-.7-8.4-2.8-6.2-9.5.5-1.7.8-3.4,1.3-5.9C251,245.2,209.5,234.6,167.4,226.2ZM306.3,78.1c1.9,3.1,2.2,4,2.8,4.6,28.9,29.1,58,58,84.2,89.6,1.2,1.5,3.3,2.1,5.7,3.6.2-2.5,1-4.2.4-5.4-6-13.6-11.3-27.7-18.7-40.5-9.5-16.3-20.7-31.5-32-48.5C336.3,79.7,322.3,77.3,306.3,78.1Zm206.4,60.4c2.1,5.7,3.3,9.9,5.2,13.9s6.3,7,12,6.3a143.4,143.4,0,0,1,17.3-1c26.7.4,53.3,1.1,80,1.4,4.6.1,9.7,1.6,14.2-3.3a47.8,47.8,0,0,0-4.2-2.3c-6.5-2.5-13.2-4.5-19.4-7.6s-12.1-3.6-18.6-3.6c-25.7.3-51.5.8-76.9-3.7C520,138.2,517.5,138.5,512.7,138.5ZM184.8,164.8l-.4-3.2c-14.7-5.5-29.5-10.8-44.2-16.5S111.4,133.6,94.4,129c1.7,4.2,2.1,6.3,3.2,7.9,8,11.1,16.3,22,24.2,33.2,2.7,3.9,6.2,4.6,10.3,4.1,15.5-1.9,30.9-3.8,46.2-6.1C180.6,167.8,182.7,166,184.8,164.8ZM438.5,463l84.5-9.7,1.8-2.8-4.4-1.5-57.9-21.2C454.7,434.1,439.7,455.8,438.5,463ZM310.4,161.8A219.1,219.1,0,0,0,346.1,229c9.1.7,17.1.3,25-5.7C351.3,202,332.6,180.4,310.4,161.8ZM224,189.5l26.4,7.5c-1-3.9-1.1-6-2.1-7.5a53,53,0,0,0-5.7-5.9C232.3,172.9,231,173.1,224,189.5Z"/><path class="cls-1" d="M744.5,527.9a32.5,32.5,0,0,1-5.4-.1c-4.2-.6-5.9-4-3.4-7.1,5.8-7.3,12-14.4,17.9-21.7,2.7-3.4,6-3.8,9.7-2.4,1.7.7,3.3,1.7,5,2.3,9.6,3.6,10.3,5.9,3.5,13.8C760,526.3,755.6,528.1,744.5,527.9Z"/><g id="Graffiti_Artwork_" data-name="Graffiti Artwork " class="cls-2"><g class="cls-2"><path class="cls-3" d="M235.2,647.8c0-13.7,9.6-22.9,22-22.9s18.9,5.9,18.9,15.8c0,.6,0,1.6-.1,2.6h-5.1V641c0-7-5.8-11.1-13.7-11.1s-16.4,7.1-16.4,17.9,7.3,17.3,16.1,17.3,14-4.9,14-11.5v-1.2H255.6v-4.2h20.9v21h-5.2c.2-1.8.4-4.9.5-8.1h-.1c-1.3,5-6.1,8.8-14.8,8.8C244.5,669.9,235.2,661.3,235.2,647.8Z"/><path class="cls-3" d="M285.8,636.4h5.3v9.5h0c1.5-5.7,4.9-10,12-10s11.2,4.9,11.2,12.8c0,2.3-.2,4.7-.3,5.8h-4.8c.1-.9.2-2.6.2-4.7,0-6-2.2-9.1-7.6-9.1s-10.6,5.8-10.6,14v14.5h-5.3Z"/><path class="cls-3" d="M320.9,659.8c0-4.7,3.2-8.6,12-8.6h13.3v-2.4c0-5.7-3.3-8.4-10-8.4s-9.4,2.3-9.4,6.7a6.2,6.2,0,0,0,.1,1.2H322a12.7,12.7,0,0,1-.1-2c0-6.5,5.5-10.4,14.4-10.4s15.2,4.8,15.2,13.3v20h-5.3c.1-1.5.2-4.6.3-7.8h-.1c-1.1,5.1-5.2,8.3-13.4,8.3S320.9,666,320.9,659.8Zm25.3-4.3V655H333.3c-5.3,0-7.5,1.6-7.5,4.8s3.1,5.4,8.3,5.4C341.5,665.2,346.2,661.4,346.2,655.5Z"/><path class="cls-3" d="M362.2,641.1h-5.5v-4.7h5.5v-3.2c0-7.2,4.4-11.3,11.2-11.3a19,19,0,0,1,5.8.9v4.7a16,16,0,0,0-5.1-.8c-4.2,0-6.6,2.3-6.6,6.5v3.2h18.7v-3.2c0-7.2,4.4-11.3,11.2-11.3a19,19,0,0,1,5.8.9v4.7a16,16,0,0,0-5.1-.8c-4.2,0-6.6,2.3-6.6,6.5v3.2h12.2v4.7H391.5v28.1h-5.3V641.1H367.5v28.1h-5.3Z"/><path class="cls-3" d="M410.6,625.6h5.7v6.7h-5.7Zm.2,10.8h5.3v32.8h-5.3Z"/><path class="cls-3" d="M427.4,657.2V641.1h-5.5v-4.7h4.4c1.1,0,1.5-.5,1.6-2.2l.3-5.2h4.5v7.4h11.9v4.7H432.7v15.8c0,4.9,1.6,7.9,6.5,7.9a22.5,22.5,0,0,0,5.1-.6v4.5a16.1,16.1,0,0,1-5.6.8C430.8,669.5,427.4,664.4,427.4,657.2Z"/><path class="cls-3" d="M451.9,625.6h5.7v6.7h-5.7Zm.2,10.8h5.3v32.8h-5.3Z"/><path class="cls-3" d="M522.4,664.8v4.7l-1.6.2c-3.9,0-7.9-1.5-11.8-4.4a19.5,19.5,0,0,1-12.8,4.6c-9.2,0-15.1-5.6-15.1-13.6s4.4-11.6,11.3-13a21.7,21.7,0,0,1-1.9-7.9c0-6.6,4.3-10.5,10.8-10.5s10.4,4,10.4,9.7-4.8,10.7-12.2,11.6a62.7,62.7,0,0,0,9.7,12.3,41.9,41.9,0,0,0,6.1-13.9h4.9a45.6,45.6,0,0,1-7.5,16.8c3,2.3,6,3.5,8.7,3.5Zm-25.8.3a15.8,15.8,0,0,0,9-2.9,72.1,72.1,0,0,1-11.2-14.8h-.2c-4.8.8-7.8,4.3-7.8,8.9S490.4,665.1,496.6,665.1Zm-.8-29.7a16,16,0,0,0,1.7,7c6.1-.9,9.3-3.9,9.3-7.7s-2.1-5-5.5-5S495.8,631.9,495.8,635.4Z"/><path class="cls-3" d="M574,658.6H551.3L547,669.2h-5.8l18.4-43.6h6.7l18.4,43.6h-6.5Zm-1.7-4.1-9.5-23.8h-.1L553,654.5Z"/><path class="cls-3" d="M591,636.4h5.3v9.5h0c1.6-5.7,5-10,12-10s11.3,4.9,11.3,12.8a39.1,39.1,0,0,1-.4,5.8h-4.8a40.5,40.5,0,0,0,.3-4.7c0-6-2.3-9.1-7.7-9.1s-10.6,5.8-10.6,14v14.5H591Z"/><path class="cls-3" d="M629.1,657.2V641.1h-5.5v-4.7H628c1.1,0,1.5-.5,1.6-2.2l.3-5.2h4.5v7.4h11.9v4.7H634.4v15.8c0,4.9,1.6,7.9,6.5,7.9a22.5,22.5,0,0,0,5.1-.6v4.5a16.1,16.1,0,0,1-5.6.8C632.5,669.5,629.1,664.4,629.1,657.2Z"/><path class="cls-3" d="M650.4,636.4h5.8l7.6,27.2h.1l9.1-27.2h5.3l8.8,27.2h.1l7.9-27.2h5.1l-9.8,32.8h-6.5l-8.5-26.1h-.2l-8.7,26.1h-6.3Z"/><path class="cls-3" d="M703.9,652.9c0-10.4,6.4-17,16.6-17s16.6,6.6,16.6,17-6.5,16.8-16.6,16.8S703.9,663.2,703.9,652.9Zm27.8,0c0-7.4-4.3-12.2-11.2-12.2s-11.3,4.8-11.3,12.2,4.4,12.1,11.3,12.1S731.7,660.3,731.7,652.9Z"/><path class="cls-3" d="M745,636.4h5.3v9.5h0c1.6-5.7,5-10,12-10s11.3,4.9,11.3,12.8a39.1,39.1,0,0,1-.4,5.8h-4.8a40.5,40.5,0,0,0,.3-4.7c0-6-2.3-9.1-7.7-9.1s-10.6,5.8-10.6,14v14.5H745Z"/><path class="cls-3" d="M781.7,623.2h5.4v31.5h0l20.6-18.3h7.4l-16.6,14.3L816,669.2h-7.5l-13.9-15.1-7.5,6.5v8.6h-5.4Z"/></g></g></svg>
