<?xml version="1.0" standalone="no"?>
<!DOCTYPE svg PUBLIC "-//W3C//DTD SVG 20010904//EN"
 "http://www.w3.org/TR/2001/REC-SVG-20010904/DTD/svg10.dtd">
<svg version="1.0" xmlns="http://www.w3.org/2000/svg"
 width="261.000000pt" height="261.000000pt" viewBox="0 0 261.000000 261.000000"
 preserveAspectRatio="xMidYMid meet">
<metadata>
Created by potrace 1.11, written by Peter Selinger 2001-2013
</metadata>
<g transform="translate(0.000000,261.000000) scale(0.100000,-0.100000)"
fill="#000000" stroke="none">
<path d="M10 1310 l0 -1300 1300 0 1300 0 0 1300 0 1300 -1300 0 -1300 0 0
-1300z m710 566 c153 -39 330 -57 528 -55 114 1 177 -2 180 -9 1 -5 -11 -26
-29 -46 -25 -29 -38 -36 -68 -36 -20 0 -42 -4 -49 -8 -7 -5 39 -14 107 -21
l120 -13 35 35 c29 29 63 44 203 91 92 31 173 57 179 59 11 2 148 -181 206
-275 30 -49 30 -56 -6 -97 -13 -14 -17 -25 -10 -28 33 -12 175 -114 231 -167
147 -136 159 -212 50 -313 -55 -51 -101 -60 -213 -43 -156 24 -276 74 -395
166 -77 59 -147 140 -161 187 -6 21 -14 36 -17 34 -3 -1 -37 -18 -75 -37 l-69
-33 61 -56 c33 -31 85 -78 116 -104 69 -60 77 -85 42 -131 -14 -19 -26 -37
-26 -39 0 -2 27 -14 60 -26 33 -12 60 -28 60 -35 0 -7 -15 -30 -33 -51 l-33
-38 -110 14 c-153 20 -399 17 -494 -5 -166 -40 -170 -40 -181 -29 -18 18 48
82 106 101 28 10 51 22 53 27 6 16 -109 52 -203 64 -85 10 -145 6 -242 -15
-42 -8 -42 4 -3 61 31 46 40 49 147 65 66 9 207 -4 268 -25 l20 -7 -20 17
c-11 9 -29 22 -40 29 -18 12 -18 16 -7 38 8 14 24 38 36 53 l23 29 33 -28 c45
-38 158 -93 325 -159 217 -86 215 -88 63 65 -73 74 -178 187 -232 251 -55 64
-104 117 -108 117 -19 0 -4 -27 50 -87 102 -116 99 -107 66 -154 -17 -26 -34
-39 -45 -37 -10 2 -49 41 -86 87 -37 47 -73 86 -78 88 -6 2 -19 -3 -30 -11
-19 -14 -19 -15 7 -63 l27 -49 -35 -44 c-20 -25 -39 -46 -43 -48 -4 -1 -17 15
-29 35 -12 21 -25 43 -30 50 -6 9 -23 4 -66 -17 -32 -16 -73 -32 -92 -36 -20
-4 -34 -12 -34 -21 0 -16 -59 -93 -71 -93 -5 0 -22 20 -39 45 l-31 45 -63 0
c-123 0 -228 32 -248 76 -9 20 -6 30 17 64 40 58 61 67 68 31 6 -31 45 -52
120 -65 45 -8 47 -15 -31 97 l-55 79 -43 -7 c-49 -7 -62 5 -40 37 27 38 19 58
-50 125 -36 35 -64 68 -62 72 12 29 96 130 108 131 8 0 42 -11 75 -25 33 -13
105 -41 160 -61 55 -20 120 -47 144 -60 50 -27 61 -23 67 27 2 18 11 40 19 49
21 23 19 40 -6 40 -29 0 -192 40 -203 50 -8 8 42 100 54 100 3 0 48 -11 100
-24z m1149 -1055 c19 -12 -3 -49 -34 -57 -39 -10 -48 4 -25 37 22 30 35 35 59
20z"/>
<path d="M1750 1740 c-63 -21 -123 -39 -132 -39 -10 -1 -18 -5 -18 -10 0 -5 8
-12 18 -16 9 -3 96 -36 192 -72 96 -36 188 -72 203 -80 16 -8 31 -12 34 -9 3
2 -27 48 -66 101 -40 53 -79 112 -88 131 -9 19 -19 34 -22 33 -3 -1 -58 -18
-121 -39z"/>
<path d="M950 1643 c46 -49 90 -95 98 -103 23 -25 5 27 -31 89 -49 82 -70 101
-113 101 l-38 0 84 -87z"/>
<path d="M1110 1710 c0 -9 99 -150 105 -150 6 0 -8 45 -17 57 -12 15 26 90 49
96 10 3 -17 5 -59 6 -45 1 -78 -3 -78 -9z"/>
<path d="M416 1608 c35 -60 57 -78 93 -77 20 1 50 5 66 9 34 8 42 3 -83 52
-83 32 -86 33 -76 16z"/>
<path d="M1322 1581 c3 -14 23 -16 133 -18 115 -1 127 0 100 11 -16 8 -76 16
-133 18 -90 4 -103 3 -100 -11z"/>
<path d="M1593 1504 l-40 -44 -87 0 c-47 0 -86 -2 -86 -5 0 -3 7 -16 16 -30
21 -32 84 -56 121 -46 44 13 127 57 162 86 18 16 38 25 47 21 13 -5 12 -11 -8
-47 l-23 -41 31 -57 c55 -101 255 -233 424 -280 74 -21 224 -29 233 -13 12 21
-19 77 -76 132 -118 117 -355 254 -578 334 l-97 35 -39 -45z"/>
<path d="M880 1534 c0 -22 66 -119 84 -122 41 -8 33 16 -24 73 -33 33 -60 55
-60 49z"/>
<path d="M697 1506 c-4 -9 2 -16 16 -20 29 -7 31 -3 8 18 -16 14 -19 15 -24 2z"/>
<path d="M567 1397 c4 -7 31 -46 58 -86 l50 -72 55 5 c118 12 199 46 128 54
-20 2 -28 9 -28 22 0 15 -17 24 -82 44 -78 24 -163 45 -181 46 -4 0 -4 -6 0
-13z"/>
<path d="M1176 945 c-9 -14 -16 -29 -14 -33 2 -4 41 -3 88 2 l85 9 -45 19
c-76 33 -94 33 -114 3z"/>
</g>
</svg>
